<svg xmlns="http://www.w3.org/2000/svg" version="1.0" width="704.000000pt" height="534.000000pt" viewBox="0 0 704.000000 534.000000" preserveAspectRatio="xMidYMid meet">

    <g transform="translate(0.000000,534.000000) scale(0.100000,-0.100000)" fill="#78070B" stroke="none">
    <path d="M4850 5245 c-489 -77 -912 -475 -1164 -1095 -138 -340 -221 -766 -233 -1196 l-6 -202 -77 -80 c-213 -220 -264 -381 -154 -484 40 -38 96 -59 189 -72 l80 -12 6 -42 c5 -40 2 -47 -48 -110 -69 -86 -105 -161 -111 -228 -6 -71 2 -97 43 -143 39 -43 91 -66 184 -80 35 -6 64 -12 65 -13 1 -2 17 -43 35 -93 49 -134 161 -357 237 -470 267 -398 585 -619 993 -690 110 -20 118 -19 146 10 25 24 25 24 25 238 0 246 2 239 -90 285 -127 64 -149 163 -150 678 l0 331 139 57 c77 31 197 83 268 115 l128 58 3 -275 c1 -151 1 -276 -1 -278 -1 -2 -41 4 -87 12 -142 25 -255 2 -328 -69 -54 -52 -75 -102 -80 -192 -3 -72 -1 -85 25 -135 33 -66 71 -93 167 -121 84 -25 87 -27 143 -103 47 -63 46 -78 -5 -91 -15 -3 -37 -16 -49 -27 -23 -21 -23 -26 -23 -243 0 -209 1 -222 20 -243 15 -16 32 -22 64 -22 63 0 195 27 290 59 l82 28 61 -57 c213 -200 541 -232 800 -79 88 53 234 197 273 271 64 120 48 263 -37 338 -48 42 -106 41 -193 -3 -36 -19 -82 -37 -103 -41 -47 -9 -139 9 -167 32 -22 17 -21 18 53 128 122 183 202 343 279 558 126 353 198 824 198 1309 l0 128 70 82 c170 198 186 362 43 439 -36 20 -136 48 -168 48 -1 0 -7 31 -14 70 l-13 70 36 49 c150 204 108 371 -104 415 l-64 13 -58 133 c-137 316 -336 593 -552 766 -190 152 -374 236 -596 269 -130 20 -147 19 -175 -10 l-25 -24 0 -213 c1 -152 4 -217 13 -228 7 -9 32 -28 57 -42 63 -36 99 -75 126 -133 36 -80 45 -184 42 -495 l-3 -284 -265 -118 c-145 -65 -265 -118 -267 -118 -2 0 -3 189 -3 420 0 445 7 525 50 610 21 41 83 101 129 124 59 31 61 40 61 269 0 207 0 208 -25 232 -28 29 -55 30 -185 10z m1765 -1309 c35 -15 55 -42 55 -73 0 -23 -39 -108 -45 -101 -3 3 -15 38 -26 79 -11 41 -22 82 -25 92 -6 21 -3 21 41 3z m-1255 -533 l0 -288 -253 -112 c-139 -62 -260 -115 -270 -119 -16 -6 -17 12 -15 281 l3 287 265 118 c146 65 266 119 268 119 1 1 2 -128 2 -286z m1433 -90 c57 -29 52 -88 -16 -190 -49 -74 -51 -71 -61 65 -4 52 -10 107 -13 124 -6 30 -6 30 28 23 19 -4 47 -14 62 -22z m-1433 -404 l0 -70 -147 -71 c-152 -72 -331 -154 -370 -169 -23 -8 -23 -7 -23 70 l0 79 258 115 c141 63 263 116 270 116 8 1 12 -19 12 -70z m0 -484 l0 -286 -97 -45 c-127 -59 -421 -184 -434 -184 -6 0 -8 103 -7 276 l3 277 165 73 c91 41 210 96 265 123 55 27 101 50 103 50 1 1 2 -127 2 -284z m-1896 -134 l7 -64 -56 6 c-30 3 -72 14 -93 24 -32 15 -37 23 -40 55 -4 49 39 131 111 212 l52 60 7 -115 c3 -62 9 -143 12 -178z m116 -663 c1 -30 -124 19 -135 51 -10 34 20 112 64 164 14 17 18 10 43 -95 15 -62 27 -116 28 -120z"/>
    <path d="M1338 5155 c-33 -18 -32 -15 -73 -227 l-33 -173 89 -525 c184 -1081 369 -2179 369 -2189 0 -8 -78 -11 -254 -11 -227 0 -256 -2 -276 -18 -18 -15 -27 -51 -62 -250 l-41 -233 20 -27 20 -27 346 -3 c318 -2 346 -4 351 -20 14 -45 76 -452 76 -499 0 -61 -11 -89 -49 -118 -127 -98 -155 -150 -150 -278 5 -108 37 -164 119 -211 l55 -31 721 0 720 0 59 30 c73 37 111 88 126 169 24 131 -29 233 -158 306 -70 39 -66 22 -179 663 -52 298 -167 944 -255 1435 -87 491 -211 1185 -274 1543 -63 358 -120 659 -126 670 -5 11 -21 24 -35 29 -15 6 -242 10 -552 10 -442 -1 -531 -3 -554 -15z"/>
    <path d="M1143 4266 c-14 -17 -38 -116 -81 -328 -168 -834 -554 -2682 -573 -2743 -26 -84 -81 -196 -121 -247 -16 -20 -74 -67 -129 -104 -149 -100 -182 -149 -182 -264 0 -82 25 -142 81 -192 83 -75 69 -73 522 -73 315 0 413 3 443 14 111 39 174 165 147 294 -17 86 -56 137 -153 200 -142 94 -163 132 -161 297 1 95 17 182 163 885 218 1047 301 1462 301 1503 0 39 -115 679 -131 730 -18 56 -91 73 -126 28z"/>
</g>
</svg>